<svg xmlns:dc="http://purl.org/dc/elements/1.1/" xmlns:cc="http://creativecommons.org/ns#" xmlns:rdf="http://www.w3.org/1999/02/22-rdf-syntax-ns#" xmlns:svg="http://www.w3.org/2000/svg" xmlns="http://www.w3.org/2000/svg" viewBox="505 0 481.33333 481.33333" height="auto" width="100%" xml:space="preserve" id="svg2" version="1.1"><metadata id="metadata8"><rdf:RDF><cc:Work rdf:about=""><dc:format>image/svg+xml</dc:format><dc:type rdf:resource="http://purl.org/dc/dcmitype/StillImage"/></cc:Work></rdf:RDF></metadata><defs id="defs6"/><g transform="matrix(1.3333333,0,0,-1.3333333,0, 481.33333)" id="g10"><g transform="scale(0.1)" id="g12"><path id="path26" style="fill:none;stroke:#233c73;stroke-width:80;stroke-linecap:butt;stroke-linejoin:miter;stroke-miterlimit:4;stroke-dasharray:none;stroke-opacity:1" d="m 5600,583.602 c 671.8,0 1216.4,544.598 1216.4,1216.398 0,671.8 -544.6,1216.4 -1216.4,1216.4 -671.8,0 -1216.4,-544.6 -1216.4,-1216.4 0,-671.8 544.6,-1216.398 1216.4,-1216.398 z"/><path id="path28" style="fill:#233c73;fill-opacity:1;fill-rule:nonzero;stroke:none" d="m 5447.95,2487.6 c 32.66,0 59.13,25.99 59.13,58.05 v 193.09 c 0,32.06 -26.47,58.05 -59.13,58.05 -32.66,0 -59.13,-25.99 -59.13,-58.05 v -193.09 c 0,-32.06 26.47,-58.05 59.13,-58.05"/><path id="path30" style="fill:#233c73;fill-opacity:1;fill-rule:nonzero;stroke:none" d="m 4971.71,2020.01 c 0,32.07 -26.47,58.05 -59.13,58.05 h -196.67 c -32.65,0 -59.13,-25.98 -59.13,-58.05 0,-32.06 26.48,-58.05 59.13,-58.05 h 196.67 c 32.66,0 59.13,25.99 59.13,58.05"/><path id="path32" style="fill:#233c73;fill-opacity:1;fill-rule:nonzero;stroke:none" d="m 5855.78,2360.2 c 14.9,0 29.81,5.49 41.31,16.51 l 140.73,134.88 c 23.36,22.4 23.81,59.15 1,82.09 -22.83,22.94 -60.24,23.38 -83.62,0.99 l -140.73,-134.88 c -23.36,-22.4 -23.81,-59.15 -1,-82.1 11.59,-11.64 26.94,-17.49 42.31,-17.49"/><path id="path34" style="fill:#233c73;fill-opacity:1;fill-rule:nonzero;stroke:none" d="m 4993.84,1671.97 -140.73,-134.89 c -23.36,-22.4 -23.81,-59.15 -1,-82.1 11.59,-11.65 26.94,-17.49 42.31,-17.49 14.9,0 29.81,5.48 41.31,16.51 l 140.73,134.88 c 23.36,22.41 23.81,59.15 1,82.1 -22.83,22.94 -60.25,23.38 -83.62,0.99"/><path id="path36" style="fill:#233c73;fill-opacity:1;fill-rule:nonzero;stroke:none" d="m 5023.56,2352.43 c 11.51,-11.03 26.42,-16.51 41.31,-16.51 15.37,0 30.73,5.85 42.32,17.5 22.8,22.93 22.35,59.69 -1.01,82.1 l -140.73,134.87 c -23.36,22.4 -60.82,21.95 -83.62,-0.98 -22.8,-22.95 -22.36,-59.7 1.01,-82.1 l 140.72,-134.88"/><path id="path38" style="fill:#233c73;fill-opacity:1;fill-rule:nonzero;stroke:none" d="m 6239.41,2011.79 c -48.35,191.87 -224.38,334.32 -434.75,334.32 -21.95,0 -43.47,-1.72 -64.57,-4.71 -77.66,68.1 -179.81,109.85 -292.13,109.85 -242.58,0 -439.23,-193.07 -439.23,-431.23 0,-100.36 35.22,-192.48 93.78,-265.75 -0.13,-3.89 -0.54,-7.7 -0.54,-11.62 0,-181.22 149.64,-328.14 334.23,-328.14 h 363.57 409.22 c 184.59,0 334.22,134.01 334.22,299.33 0,156.11 -133.49,284.17 -303.8,297.95 m -1136.07,8.23 c 0,186.56 154.59,338.34 344.62,338.34 65.11,0 125.84,-18.15 177.84,-49.08 -108.44,-46.54 -194.58,-133.81 -238.1,-242.33 -112.76,-16.14 -207.16,-87.45 -253.99,-185.12 -19.35,42.25 -30.37,88.94 -30.37,138.19"/><path id="path40" style="fill:#233c73;fill-opacity:1;fill-rule:nonzero;stroke:none" d="m 5708.03,1372.43 c -31.11,9.14 -64.16,-8.12 -73.62,-38.76 L 5478.64,827.051 c -9.4,-30.66 8.25,-63.02 39.48,-72.281 5.68,-1.668 11.45,-2.489 17.1,-2.489 25.35,0 48.79,16.199 56.52,41.25 l 155.77,506.619 c 9.4,30.66 -8.25,63.02 -39.48,72.28"/><path id="path42" style="fill:#233c73;fill-opacity:1;fill-rule:nonzero;stroke:none" d="m 5463.01,1372.43 c -31.17,9.14 -64.16,-8.12 -73.62,-38.76 l -84.4,-274.5 c -9.4,-30.66 8.25,-63.022 39.48,-72.279 5.68,-1.672 11.44,-2.493 17.09,-2.493 25.35,0 48.8,16.202 56.52,41.252 l 84.41,274.5 c 9.4,30.66 -8.25,63.02 -39.48,72.28"/><path id="path44" style="fill:#233c73;fill-opacity:1;fill-rule:nonzero;stroke:none" d="m 5953.08,1372.43 c -31.09,9.14 -64.16,-8.12 -73.62,-38.76 L 5723.69,827.051 c -9.4,-30.66 8.25,-63.02 39.48,-72.281 5.68,-1.668 11.44,-2.489 17.1,-2.489 25.34,0 48.79,16.199 56.52,41.25 l 155.77,506.619 c 9.4,30.66 -8.25,63.02 -39.48,72.28"/><path id="path46" style="fill:#233c73;fill-opacity:1;fill-rule:nonzero;stroke:none" d="m 6198.12,1372.43 c -31.17,9.14 -64.16,-8.12 -73.62,-38.76 l -84.4,-274.5 c -9.4,-30.66 8.25,-63.022 39.48,-72.279 5.68,-1.672 11.44,-2.493 17.1,-2.493 25.34,0 48.79,16.202 56.51,41.252 l 84.41,274.5 c 9.4,30.66 -8.25,63.02 -39.48,72.28"/></g></g></svg>