<svg xmlns:dc="http://purl.org/dc/elements/1.1/" xmlns:cc="http://creativecommons.org/ns#" xmlns:rdf="http://www.w3.org/1999/02/22-rdf-syntax-ns#" xmlns:svg="http://www.w3.org/2000/svg" xmlns="http://www.w3.org/2000/svg" viewBox="1000 0 481.33333 481.33333" height="auto" width="100%" xml:space="preserve" id="svg2" version="1.1"><metadata id="metadata8"><rdf:RDF><cc:Work rdf:about=""><dc:format>image/svg+xml</dc:format><dc:type rdf:resource="http://purl.org/dc/dcmitype/StillImage"/></cc:Work></rdf:RDF></metadata><defs id="defs6"/><g transform="matrix(1.3333333,0,0,-1.3333333,0,481.33333)" id="g10"><g transform="scale(0.1)" id="g12"><path id="path48" style="fill:none;stroke:#233c73;stroke-width:80;stroke-linecap:butt;stroke-linejoin:miter;stroke-miterlimit:4;stroke-dasharray:none;stroke-opacity:1" d="m 9400,593.602 c 671.8,0 1216.4,544.598 1216.4,1216.398 0,671.8 -544.6,1216.4 -1216.4,1216.4 -671.8,0 -1216.4,-544.6 -1216.4,-1216.4 0,-671.8 544.6,-1216.398 1216.4,-1216.398 z"/><path id="path50" style="fill:#233c73;fill-opacity:1;fill-rule:nonzero;stroke:none" d="m 8969.23,2254.2 c 23.43,0 42.42,18.76 42.42,41.92 v 139.39 c 0,23.14 -18.99,41.91 -42.42,41.91 -23.43,0 -42.42,-18.77 -42.42,-41.91 v -139.39 c 0,-23.16 18.99,-41.92 42.42,-41.92"/><path id="path52" style="fill:#233c73;fill-opacity:1;fill-rule:nonzero;stroke:none" d="m 8627.57,1916.65 c 0,23.15 -18.99,41.91 -42.42,41.91 h -141.09 c -23.43,0 -42.43,-18.76 -42.43,-41.91 0,-23.15 19,-41.91 42.43,-41.91 h 141.09 c 23.43,0 42.42,18.76 42.42,41.91"/><path id="path54" style="fill:#233c73;fill-opacity:1;fill-rule:nonzero;stroke:none" d="m 9261.82,2162.23 c 10.69,0 21.39,3.96 29.64,11.92 l 100.96,97.37 c 16.76,16.17 17.08,42.7 0.72,59.26 -16.38,16.56 -43.22,16.88 -59.99,0.72 l -100.98,-97.37 c -16.75,-16.18 -17.07,-42.71 -0.71,-59.27 8.32,-8.41 19.33,-12.63 30.36,-12.63"/><path id="path56" style="fill:#233c73;fill-opacity:1;fill-rule:nonzero;stroke:none" d="m 8643.44,1665.39 -100.96,-97.38 c -16.76,-16.17 -17.09,-42.7 -0.72,-59.27 8.31,-8.4 19.32,-12.62 30.35,-12.62 10.69,0 21.39,3.96 29.64,11.91 l 100.96,97.38 c 16.76,16.17 17.08,42.7 0.72,59.27 -16.38,16.56 -43.22,16.88 -59.99,0.71"/><path id="path58" style="fill:#233c73;fill-opacity:1;fill-rule:nonzero;stroke:none" d="m 8664.76,2156.62 c 8.26,-7.96 18.95,-11.92 29.64,-11.92 11.02,0 22.04,4.22 30.36,12.63 16.36,16.57 16.03,43.1 -0.73,59.27 l -100.96,97.37 c -16.76,16.16 -43.63,15.85 -59.99,-0.71 -16.36,-16.57 -16.04,-43.1 0.72,-59.27 l 100.96,-97.37"/><path id="path60" style="fill:#233c73;fill-opacity:1;fill-rule:nonzero;stroke:none" d="m 9155.82,1449.15 c -22.32,6.6 -46.03,-5.87 -52.81,-27.98 l -111.76,-365.73 c -6.74,-22.14 5.92,-45.5 28.32,-52.18 4.08,-1.21 8.22,-1.8 12.27,-1.8 18.19,0 35,11.69 40.55,29.78 l 111.75,365.73 c 6.75,22.14 -5.91,45.5 -28.32,52.18"/><path id="path62" style="fill:#233c73;fill-opacity:1;fill-rule:nonzero;stroke:none" d="m 8980.04,1449.15 c -22.36,6.6 -46.03,-5.87 -52.81,-27.98 L 8866.67,1223 c -6.74,-22.13 5.92,-45.49 28.32,-52.17 4.08,-1.21 8.22,-1.8 12.27,-1.8 18.18,0 35,11.69 40.55,29.78 l 60.55,198.16 c 6.75,22.14 -5.92,45.5 -28.32,52.18"/><path id="path64" style="fill:#233c73;fill-opacity:1;fill-rule:nonzero;stroke:none" d="m 9331.62,1449.15 c -22.3,6.6 -46.03,-5.87 -52.82,-27.98 l -111.75,-365.73 c -6.74,-22.14 5.92,-45.5 28.32,-52.18 4.08,-1.21 8.21,-1.8 12.27,-1.8 18.18,0 35,11.69 40.55,29.78 l 111.75,365.73 c 6.74,22.14 -5.92,45.5 -28.32,52.18"/><path id="path66" style="fill:#233c73;fill-opacity:1;fill-rule:nonzero;stroke:none" d="m 9507.42,1449.15 c -22.36,6.6 -46.03,-5.87 -52.82,-27.98 L 9394.05,1223 c -6.74,-22.13 5.92,-45.49 28.32,-52.17 4.08,-1.21 8.22,-1.8 12.27,-1.8 18.19,0 35.01,11.69 40.55,29.78 l 60.55,198.16 c 6.75,22.14 -5.92,45.5 -28.32,52.18"/><path id="path68" style="fill:#233c73;fill-opacity:1;fill-rule:nonzero;stroke:none" d="m 10196.9,2053.46 c -67,0 -129.4,-32.78 -167,-87.72 -22.5,-32.94 -34.42,-71.42 -34.42,-111.29 0,-12.87 1.27,-25.82 3.77,-38.47 4.45,-22.68 26.55,-37.48 49.65,-33.08 23,4.42 38,26.4 33.5,49.08 -1.4,7.4 -2.2,14.96 -2.2,22.47 0,23.11 6.9,45.39 19.9,64.44 21.8,31.84 58,50.86 96.8,50.86 64.4,0 116.7,-51.73 116.7,-115.3 0,-30.81 -12.8,-60.76 -35,-82.32 -12.1,-11.69 -26.8,-20.44 -42.8,-25.82 -29,-9.77 -59.8,-8.55 -90,-8.55 h -85.4 -119.37 -141.46 -49.17 c -10.08,45.92 -36.31,86.58 -73.15,117.02 h 2.26 72.38 c 21.78,0 43.46,-1.98 64.5,4.84 16.45,5.33 32.48,12.03 47.62,20.34 30.4,16.71 57.02,40.1 75.64,69.28 7.12,11.17 13.05,23.07 17.71,35.43 8.32,22.07 12.55,45.58 12.55,69.12 0,109.74 -90.37,199.02 -201.43,199.02 -53.81,0 -104.39,-20.71 -142.45,-58.3 -38.05,-37.6 -59,-87.57 -59,-140.72 0,-23.11 18.97,-41.85 42.37,-41.85 23.39,0 42.36,18.74 42.36,41.85 0,30.79 12.15,59.74 34.18,81.52 22.04,21.79 51.37,33.78 82.54,33.78 64.34,0 116.69,-51.73 116.69,-115.3 0,-63.57 -52.35,-115.3 -116.69,-115.3 h -239.87 c -43.67,124.25 -162.83,213.58 -303.47,213.58 -15.74,0 -31.18,-1.24 -46.31,-3.4 -55.72,49.16 -129,79.3 -209.6,79.3 -174.02,0 -315.1,-139.38 -315.1,-311.31 0,-72.45 25.27,-138.95 67.28,-191.85 -0.1,-2.8 -0.39,-5.56 -0.39,-8.39 0,-130.82 107.35,-236.88 239.77,-236.88 h 260.85 293.58 c 0.54,0 1.06,0.07 1.59,0.07 h 396.69 c 64.34,0 116.7,-51.72 116.7,-115.29 0,-63.57 -52.36,-115.3 -116.7,-115.3 -51.65,0 -97.76,34.17 -112.12,83.15 -3.06,10.37 -4.6,21.18 -4.6,32.15 0,23.11 -18.97,41.86 -42.37,41.86 -23.39,0 -42.37,-18.75 -42.37,-41.86 0,-18.88 2.7,-37.57 7.97,-55.49 24.79,-84.5 104.35,-143.52 193.49,-143.52 111.1,0 201.4,89.27 201.4,199.01 0,109.73 -90.3,199 -201.4,199 h -208.98 c 22.54,26.15 38.64,56.98 45.95,90.72 h 59.57 141.25 119.11 85.3 c 37.5,0 74.7,0.8 110.4,13.72 30.4,11.02 58,29.39 79.9,53.07 33.5,36.36 52.4,84.43 52.4,133.62 0,109.74 -90.4,199.01 -201.5,199.01 M 8926,1950.54 c -80.89,-11.65 -148.62,-63.13 -182.21,-133.64 -13.88,30.5 -21.8,64.2 -21.8,99.76 0,134.68 110.91,244.25 247.24,244.25 46.72,0 90.29,-13.1 127.6,-35.43 -77.81,-33.6 -139.6,-96.6 -170.83,-174.94"/></g></g></svg>