<svg xmlns:dc="http://purl.org/dc/elements/1.1/" xmlns:cc="http://creativecommons.org/ns#" xmlns:rdf="http://www.w3.org/1999/02/22-rdf-syntax-ns#" xmlns:svg="http://www.w3.org/2000/svg" xmlns="http://www.w3.org/2000/svg" viewBox="100 0 481.33334 481.33334" height="auto" width="100%" xml:space="preserve" id="svg2" version="1.1"><metadata id="metadata8"><rdf:RDF><cc:Work rdf:about=""><dc:format>image/svg+xml</dc:format><dc:type rdf:resource="http://purl.org/dc/dcmitype/StillImage"/></cc:Work></rdf:RDF></metadata><defs id="defs6"/><g transform="matrix(1.3333333,0,0,-1.3333333,0,481.33333)" id="g10"><g transform="scale(0.1)" id="g12"><g transform="scale(1.11757)" id="g70"><path id="path72" style="fill:none;stroke:#233c73;stroke-width:71.58380127;stroke-linecap:butt;stroke-linejoin:miter;stroke-miterlimit:4;stroke-dasharray:none;stroke-opacity:1" d="m 2325.6,522.206 c 601.1,0 1088.4,487.304 1088.4,1088.434 0,601.12 -487.3,1088.43 -1088.4,1088.43 -601.2,0 -1088.5,-487.31 -1088.5,-1088.43 0,-601.13 487.3,-1088.434 1088.5,-1088.434 z"/></g><g transform="scale(1.1019)" id="g74"><path id="path76" style="fill:#233c73;fill-opacity:1;fill-rule:nonzero;stroke:none" d="m 3155.8,1321.68 -656.6,1100.26 c -56.6,94.94 -194.1,94.94 -250.8,0 l -656.6,-1100.26 c -58.1,-97.36 12.1,-220.91 125.4,-220.91 h 1313.2 c 113.4,0 183.6,123.55 125.4,220.91 m -659.1,758.89 -20.9,-470.56 h -203.9 l -21,470.56 z m -122.3,-790.1 c -76.4,0 -128.6,39.75 -128.6,112.95 0,73.19 52.2,113.98 128.6,113.98 75.3,0 127.6,-40.79 127.6,-113.98 0,-73.2 -52.3,-112.95 -127.6,-112.95"/></g></g></g></svg>