<svg xmlns:dc="http://purl.org/dc/elements/1.1/" xmlns:cc="http://creativecommons.org/ns#" xmlns:rdf="http://www.w3.org/1999/02/22-rdf-syntax-ns#" xmlns:svg="http://www.w3.org/2000/svg" xmlns="http://www.w3.org/2000/svg" viewBox="0 0 360 360" width="100%" height="auto" xml:space="preserve" id="svg2" version="1.1"><metadata id="metadata8"><rdf:RDF><cc:Work rdf:about=""><dc:format>image/svg+xml</dc:format><dc:type rdf:resource="http://purl.org/dc/dcmitype/StillImage"/></cc:Work></rdf:RDF></metadata><defs id="defs6"/><g id="g10"><g transform="scale(0.1)" id="g12"><path id="path100" style="fill:#233c73;fill-opacity:1;fill-rule:nonzero;stroke:none" d="m 2203.64,1800 c 0,-221.11 -182.96,-400.36 -408.65,-400.36 -225.69,0 -408.65,179.25 -408.65,400.36 0,221.11 182.96,400.36 408.65,400.36 225.69,0 408.65,-179.25 408.65,-400.36"/><path id="path102" style="fill:#233c73;fill-opacity:1;fill-rule:nonzero;stroke:none" d="m 1794.99,2278.8 c -30.39,0 -55.01,24.13 -55.01,53.9 v 179.26 c 0,29.77 24.62,53.9 55.01,53.9 30.39,0 55.01,-24.13 55.01,-53.9 V 2332.7 c 0,-29.77 -24.62,-53.9 -55.01,-53.9"/><path id="path104" style="fill:#233c73;fill-opacity:1;fill-rule:nonzero;stroke:none" d="m 1794.99,1034.14 c -30.39,0 -55.01,24.13 -55.01,53.9 v 179.26 c 0,29.77 24.62,53.9 55.01,53.9 30.39,0 55.01,-24.13 55.01,-53.9 v -179.26 c 0,-29.77 -24.62,-53.9 -55.01,-53.9"/><path id="path106" style="fill:#233c73;fill-opacity:1;fill-rule:nonzero;stroke:none" d="m 2531.72,1746.1 h -182.98 c -30.38,0 -55.01,24.13 -55.01,53.9 0,29.76 24.63,53.89 55.01,53.89 h 182.98 c 30.39,0 55.02,-24.13 55.02,-53.89 0,-29.77 -24.63,-53.9 -55.02,-53.9"/><path id="path108" style="fill:#233c73;fill-opacity:1;fill-rule:nonzero;stroke:none" d="m 1251.26,1746.1 h -182.98 c -30.38,0 -55.01,24.13 -55.01,53.9 0,29.76 24.63,53.89 55.01,53.89 h 182.98 c 30.39,0 55.01,-24.13 55.01,-53.89 0,-29.77 -24.62,-53.9 -55.01,-53.9"/><path id="path110" style="fill:#233c73;fill-opacity:1;fill-rule:nonzero;stroke:none" d="m 2196.9,2137.84 c -14.3,0 -28.58,5.43 -39.37,16.24 -21.22,21.31 -20.8,55.42 0.94,76.23 l 130.92,125.22 c 21.75,20.79 56.56,20.38 77.8,-0.92 21.22,-21.3 20.8,-55.42 -0.94,-76.22 l -130.92,-125.23 c -10.7,-10.22 -24.57,-15.32 -38.43,-15.32"/><path id="path112" style="fill:#233c73;fill-opacity:1;fill-rule:nonzero;stroke:none" d="m 1275.73,1255 c -14.3,0 -28.58,5.43 -39.36,16.24 -21.23,21.3 -20.81,55.43 0.93,76.21 l 130.92,125.24 c 21.73,20.81 56.57,20.39 77.79,-0.91 21.23,-21.29 20.81,-55.42 -0.93,-76.21 l -130.92,-125.23 c -10.7,-10.24 -24.57,-15.34 -38.43,-15.34"/><path id="path114" style="fill:#233c73;fill-opacity:1;fill-rule:nonzero;stroke:none" d="m 1406.65,2137.85 c -13.86,0 -27.73,5.09 -38.43,15.32 L 1237.3,2278.4 c -21.74,20.8 -22.16,54.92 -0.94,76.22 21.26,21.29 56.07,21.68 77.8,0.92 l 130.92,-125.23 c 21.74,-20.8 22.16,-54.91 0.94,-76.22 -10.79,-10.81 -25.08,-16.24 -39.37,-16.24"/><path id="path116" style="fill:#233c73;fill-opacity:1;fill-rule:nonzero;stroke:none" d="m 2324.95,1244.52 c -13.86,0 -27.73,5.1 -38.43,15.34 l -130.92,125.23 c -21.74,20.79 -22.16,54.91 -0.93,76.21 21.25,21.29 56.07,21.7 77.79,0.91 l 130.93,-125.24 c 21.73,-20.78 22.15,-54.91 0.92,-76.21 -10.78,-10.82 -25.07,-16.24 -39.36,-16.24"/><path id="path118" style="fill:none;stroke:#233c73;stroke-width:80;stroke-linecap:butt;stroke-linejoin:miter;stroke-miterlimit:4;stroke-dasharray:none;stroke-opacity:1" d="m 1800,583.602 c 671.8,0 1216.4,544.598 1216.4,1216.398 0,671.8 -544.6,1216.4 -1216.4,1216.4 C 1128.2,3016.4 583.602,2471.8 583.602,1800 583.602,1128.2 1128.2,583.602 1800,583.602 Z"/></g></g></svg>