<svg xmlns:dc="http://purl.org/dc/elements/1.1/" xmlns:cc="http://creativecommons.org/ns#" xmlns:rdf="http://www.w3.org/1999/02/22-rdf-syntax-ns#" xmlns:svg="http://www.w3.org/2000/svg" xmlns="http://www.w3.org/2000/svg" viewBox="300 -90 481.33333 800" height="100%" width="auto" xml:space="preserve" id="svg2" version="1.1"><metadata id="metadata8"><rdf:RDF><cc:Work rdf:about=""><dc:format>image/svg+xml</dc:format><dc:type rdf:resource="http://purl.org/dc/dcmitype/StillImage"/></cc:Work></rdf:RDF></metadata><defs id="defs6"/><g transform="matrix(1.3333333,0,0,-1.3333333,0,481.33333)" id="g10"><g transform="scale(0.13)" id="g12"><path id="path78" style="fill:none;stroke:#233c73;stroke-width:50;stroke-linecap:butt;stroke-linejoin:miter;stroke-miterlimit:4;stroke-dasharray:none;stroke-opacity:1" d="m 3155.6,1845.99 c 391.9,0 709.5,317.66 709.5,709.5 0,391.85 -317.6,709.51 -709.5,709.51 -391.8,0 -709.5,-317.66 -709.5,-709.51 0,-391.84 317.7,-709.5 709.5,-709.5 z"/><path id="path80" style="fill:#233c73;fill-opacity:1;fill-rule:nonzero;stroke:none" d="m 2672.2,2675.72 h 511.3 c 99.6,0 180.6,81.03 180.6,180.64 0,99.6 -81,180.63 -180.6,180.63 -99.6,0 -180.7,-81.03 -180.7,-180.63 0,-20.78 16.9,-37.62 37.7,-37.62 20.7,0 37.6,16.84 37.6,37.62 0,58.11 47.2,105.39 105.4,105.39 58.1,0 105.4,-47.28 105.4,-105.39 0,-58.12 -47.3,-105.41 -105.4,-105.41 h -511.3 c -20.8,0 -37.6,-16.84 -37.6,-37.61 0,-20.78 16.8,-37.62 37.6,-37.62"/><path id="path82" style="fill:#233c73;fill-opacity:1;fill-rule:nonzero;stroke:none" d="m 3312.5,2416.84 h -511.3 c -20.8,0 -37.6,-16.84 -37.6,-37.62 0,-20.77 16.8,-37.61 37.6,-37.61 h 511.3 c 58.1,0 105.4,-47.28 105.4,-105.4 0,-58.12 -47.3,-105.4 -105.4,-105.4 -58.1,0 -105.4,47.28 -105.4,105.4 0,20.78 -16.9,37.62 -37.6,37.62 -20.8,0 -37.7,-16.84 -37.7,-37.62 0,-99.61 81.1,-180.64 180.7,-180.64 99.6,0 180.6,81.03 180.6,180.64 0,99.6 -81,180.63 -180.6,180.63"/><path id="path84" style="fill:#233c73;fill-opacity:1;fill-rule:nonzero;stroke:none" d="m 3566.7,2863.4 c -99.6,0 -180.7,-81.03 -180.7,-180.63 0,-20.77 16.9,-37.62 37.7,-37.62 20.7,0 37.6,16.85 37.6,37.62 0,58.12 47.3,105.4 105.4,105.4 58.1,0 105.4,-47.28 105.4,-105.4 0,-58.12 -47.3,-105.39 -105.4,-105.39 h -1006.1 c -20.8,0 -37.6,-16.85 -37.6,-37.62 0,-20.77 16.8,-37.62 37.6,-37.62 h 1006.1 c 99.6,0 180.6,81.03 180.6,180.63 0,99.6 -81,180.63 -180.6,180.63"/><path id="path86" style="fill:none;stroke:#233c73;stroke-width:50;stroke-linecap:butt;stroke-linejoin:miter;stroke-miterlimit:4;stroke-dasharray:none;stroke-opacity:1" d="m 3155.6,335 c 391.9,0 709.5,317.66 709.5,709.5 0,391.85 -317.6,709.5 -709.5,709.5 -391.8,0 -709.5,-317.65 -709.5,-709.5 0,-391.84 317.7,-709.5 709.5,-709.5 z"/><path id="path88" style="fill:#233c73;fill-opacity:1;fill-rule:nonzero;stroke:none" d="m 2861.8,551.742 c -3.7,0 -7.5,0.52 -11.2,1.598 -20.3,5.961 -31.7,26.801 -25.6,46.551 l 101.2,326.289 c 6.2,19.75 27.6,30.902 47.9,24.949 20.3,-5.949 31.8,-26.789 25.6,-46.539 l -101.2,-326.289 c -5,-16.153 -20.3,-26.559 -36.7,-26.559"/><path id="path90" style="fill:#233c73;fill-opacity:1;fill-rule:nonzero;stroke:none" d="m 2748.9,701.25 c -3.7,0 -7.4,0.52 -11.1,1.602 -20.3,5.968 -31.8,26.796 -25.7,46.546 l 54.9,176.782 c 6.1,19.742 27.6,30.902 47.8,24.949 20.3,-5.949 31.8,-26.797 25.7,-46.539 l -54.9,-176.781 c -5,-16.149 -20.2,-26.559 -36.7,-26.559"/><path id="path92" style="fill:#233c73;fill-opacity:1;fill-rule:nonzero;stroke:none" d="m 3338.1,551.742 c -3.6,0 -7.4,0.52 -11.1,1.598 -20.3,5.961 -31.7,26.801 -25.6,46.551 l 101.2,326.289 c 6.2,19.75 27.5,30.902 47.9,24.949 20.3,-5.949 31.7,-26.789 25.6,-46.539 l -101.2,-326.289 c -5,-16.153 -20.3,-26.559 -36.8,-26.559"/><path id="path94" style="fill:#233c73;fill-opacity:1;fill-rule:nonzero;stroke:none" d="m 3420.5,1362.92 c -31.4,123.58 -145.8,215.31 -282.5,215.31 -123.3,0 -228.5,-74.57 -271.1,-179.79 -105,-14.89 -185.7,-102.58 -185.7,-208.86 0,-116.72 97.3,-211.33 217.3,-211.33 h 152.8 V 752.238 c 0,-33.679 23.1,-63.187 56.5,-72.047 6.7,-1.781 13.5,-2.64 20.2,-2.64 26.7,0 52.1,13.59 66.2,36.781 l 156.4,258.25 c 1.2,1.809 2.1,3.758 3.1,5.668 h 47.1 c 120,0 217.2,86.31 217.2,192.78 0,100.54 -86.8,183.01 -197.5,191.89 m -35.6,-230.67 v 0 L 3150,752.238 v 226.012 59.9 h -211.5 l 248.7,406.86 -2.9,-272.16 h 220.5 l -117.9,-194.6"/><path id="path96" style="fill:none;stroke:#233c73;stroke-width:50;stroke-linecap:butt;stroke-linejoin:miter;stroke-miterlimit:4;stroke-dasharray:none;stroke-opacity:1" d="m 3155.5,-1200.492 c 391.8,0 709.5,317.656 709.5,709.498 0,391.85 -317.7,709.51 -709.5,709.51 -391.9,0 -709.5,-317.66 -709.5,-709.51 0,-391.842 317.6,-709.498 709.5,-709.498 z"/><path id="path98" style="fill:#233c73;fill-opacity:1;fill-rule:nonzero;stroke:none" d="m 3155.7,0 c -223.7,0 -405.1,-62.48 -405.1,-139.56 0,0 -6.6,-12.49 21,-53.69 44.9,-66.85 134.8,-180.99 153,-229.02 34,-89.94 49.9,-288.421 97.1,-372.171 43,-76.117 244,-250.488 244,-250.488 0,0 22.8,301.031 59.3,393.64 30.7,78.11 154.4,200.919 189.7,277.069 25.1,54.24 46.2,234.66 46.2,234.66 0,77.08 -181.4,139.56 -405.2,139.56 m -316.1,-151.52 c 0,55.59 145.8,100.65 325.7,100.65 179.9,0 325.8,-45.06 325.8,-100.65 0,-55.58 -651.5,-55.58 -651.5,0"/></g></g></svg>