<svg width="80" height="80" viewBox="0 0 80 80" fill="none" xmlns="http://www.w3.org/2000/svg">
<rect x="27.5" y="2.5" width="50" height="50" rx="25" fill="#FAE100"/>
<path fill-rule="evenodd" clip-rule="evenodd" d="M10.6356 29.6677C13.0301 19.8151 21.9108 12.5 32.5 12.5C40.3011 12.5 47.1748 16.4701 51.2111 22.5H58.75C69.1053 22.5 77.5 30.8947 77.5 41.25C77.5 51.6053 69.1053 60 58.75 60H36.25C36.2276 60 36.2051 60 36.1827 59.9999H32.5738C32.5492 60 32.5246 60 32.5 60C32.4754 60 32.4508 60 32.4263 59.9999H18.75C9.77536 59.9999 2.5 52.7245 2.5 43.7499C2.5 37.7307 5.77263 32.4759 10.6356 29.6677Z" fill="#949494"/>
<rect x="24.8281" y="67.8984" width="4" height="10" transform="rotate(-135 24.8281 67.8984)" fill="#004C95"/>
<rect x="36.7266" y="67.8984" width="4" height="10" transform="rotate(-135 36.7266 67.8984)" fill="#004C95"/>
<rect x="48.6289" y="67.8984" width="4" height="10" transform="rotate(-135 48.6289 67.8984)" fill="#004C95"/>
</svg>
