<svg width="80" height="80" viewBox="0 0 80 80" fill="none" xmlns="http://www.w3.org/2000/svg">
<path fill-rule="evenodd" clip-rule="evenodd" d="M35 2.5H31.25V15.474L22.0735 6.29757L19.4219 8.94922L28.5977 18.125L15.625 18.125V21.875H28.599L19.4226 31.0515L22.0742 33.7031L31.25 24.5274V37.5H35V24.5273L44.1706 33.698L46.8223 31.0463L37.651 21.875H50.625V18.125L37.6523 18.125L46.823 8.95439L44.1713 6.30274L35 15.4741V2.5Z" fill="#949494"/>
<path fill-rule="evenodd" clip-rule="evenodd" d="M21.875 42.5H18.125V55.474L8.94853 46.2976L6.29688 48.9492L15.4727 58.125L2.5 58.125V61.875H15.474L6.29757 71.0515L8.94922 73.7031L18.125 64.5274V77.5H21.875V64.5273L31.0456 73.698L33.6973 71.0463L24.526 61.875H37.5V58.125L24.5273 58.125L33.698 48.9544L31.0463 46.3027L21.875 55.4741V42.5Z" fill="#949494"/>
<path fill-rule="evenodd" clip-rule="evenodd" d="M61.875 35H58.125V47.974L48.9485 38.7976L46.2969 41.4492L55.4727 50.625L42.5 50.625V54.375H55.474L46.2976 63.5515L48.9492 66.2031L58.125 57.0274V70H61.875V57.0273L71.0456 66.198L73.6973 63.5463L64.526 54.375H77.5V50.625L64.5273 50.625L73.698 41.4544L71.0463 38.8027L61.875 47.9741V35Z" fill="#949494"/>
</svg>
