<svg width="80" height="80" viewBox="0 0 80 80" fill="none" xmlns="http://www.w3.org/2000/svg">
<path fill-rule="evenodd" clip-rule="evenodd" d="M50.6527 4.03466C42.7635 8.86866 37.5 17.5697 37.5 27.5C37.5 42.6878 49.8122 55 65 55C68.5898 55 72.0189 54.3122 75.1628 53.0611C69.8597 67.3322 56.1173 77.5 40 77.5C19.2893 77.5 2.5 60.7107 2.5 40C2.5 19.2893 19.2893 2.5 40 2.5C43.7006 2.5 47.276 3.03602 50.6527 4.03466Z" fill="#FAE100"/>
<path fill-rule="evenodd" clip-rule="evenodd" d="M7.77622 43.2507C9.18348 35.7089 15.8 30 23.75 30C29.503 30 34.5578 32.9896 37.4455 37.5H42.5C50.0939 37.5 56.25 43.6561 56.25 51.25C56.25 58.8439 50.0939 65 42.5 65H33.8164C33.8132 65 33.81 65 33.8068 65L26.25 65L23.75 65H14.375C7.81663 65 2.5 59.6834 2.5 53.125C2.5 49.0085 4.59463 45.3811 7.77622 43.2507Z" fill="#949494"/>
</svg>
