<svg width="80" height="80" viewBox="0 0 80 80" fill="none" xmlns="http://www.w3.org/2000/svg">
<path d="M5 17.5C14.3333 17.5 15.2961 12.5 22.5 12.5C29.7039 12.5 32.7961 17.5 40 17.5C47.2039 17.5 50.2961 12.5 57.5 12.5C64.7039 12.5 66.8333 17.5 75 17.5" stroke="#949494" stroke-width="4" stroke-linecap="square"/>
<path d="M5 50C14.3333 50 15.2961 45 22.5 45C29.7039 45 32.7961 50 40 50C47.2039 50 50.2961 45 57.5 45C64.7039 45 66.8333 50 75 50" stroke="#949494" stroke-width="4" stroke-linecap="square"/>
<path d="M5 33.75C14.3333 33.75 15.2961 28.75 22.5 28.75C29.7039 28.75 32.7961 33.75 40 33.75C47.2039 33.75 50.2961 28.75 57.5 28.75C64.7039 28.75 66.8333 33.75 75 33.75" stroke="#949494" stroke-width="4" stroke-linecap="square"/>
<path d="M5 66.25C14.3333 66.25 15.2961 61.25 22.5 61.25C29.7039 61.25 32.7961 66.25 40 66.25C47.2039 66.25 50.2961 61.25 57.5 61.25C64.7039 61.25 66.8333 66.25 75 66.25" stroke="#949494" stroke-width="4" stroke-linecap="square"/>
</svg>
