<svg width="80" height="80" viewBox="0 0 80 80" fill="none" xmlns="http://www.w3.org/2000/svg">
<path fill-rule="evenodd" clip-rule="evenodd" d="M10.6356 27.1677C13.0301 17.3151 21.9108 10 32.5 10C40.3011 10 47.1748 13.9701 51.2111 20H58.75C69.1053 20 77.5 28.3947 77.5 38.75C77.5 49.1053 69.1053 57.5 58.75 57.5H36.25C36.2276 57.5 36.2051 57.5 36.1827 57.4999H32.5738C32.5492 57.5 32.5246 57.5 32.5 57.5C32.4754 57.5 32.4508 57.5 32.4263 57.4999H18.75C9.77536 57.4999 2.5 50.2245 2.5 41.2499C2.5 35.2307 5.77263 29.9759 10.6356 27.1677Z" fill="#949494"/>
<rect x="25.8281" y="65.8984" width="4" height="10" transform="rotate(-135 25.8281 65.8984)" fill="#004C95"/>
<rect x="37.7266" y="65.8984" width="4" height="10" transform="rotate(-135 37.7266 65.8984)" fill="#004C95"/>
<rect x="49.6289" y="65.8984" width="4" height="10" transform="rotate(-135 49.6289 65.8984)" fill="#004C95"/>
</svg>
