<svg version="1.1" id="Layer_1" xmlns="http://www.w3.org/2000/svg" xmlns:xlink="http://www.w3.org/1999/xlink" x="0px" y="0px"
	 width="100%" viewBox="0 0 75 75" enable-background="new 0 0 75 75" xml:space="preserve">
<path fill="#FFFFFE" opacity="1.000000" stroke="none" 
	d="
M45.000000,76.000000 
	C30.000002,76.000000 15.500005,76.000000 1.000006,76.000000 
	C1.000004,51.000008 1.000004,26.000013 1.000002,1.000011 
	C24.999990,1.000000 49.000183,1.043959 72.999672,0.934497 
	C75.500610,0.923090 76.077782,1.499039 76.065659,4.000283 
	C75.954216,26.999741 75.954224,50.000179 76.065643,72.999634 
	C76.077759,75.500679 75.506203,76.116013 72.998749,76.068573 
	C63.835346,75.895233 54.666683,76.000000 45.000000,76.000000 
z"/>
<path fill="#CDCDCB" opacity="1.000000" stroke="none" 
	d="
M37.180294,49.793495 
	C32.273335,50.024738 27.616997,50.085835 22.964447,49.980148 
	C17.260237,49.850571 12.558683,47.915756 10.197678,42.235725 
	C7.826335,36.530827 8.903365,31.478899 13.355151,27.250551 
	C14.969688,25.717051 16.023613,23.919470 17.016768,21.986528 
	C22.684671,10.955277 36.515755,8.592344 45.573555,17.196796 
	C47.491676,19.018913 49.306652,20.060791 52.074623,20.068993 
	C62.684910,20.100435 69.152977,26.062838 68.991859,35.328804 
	C68.832909,44.470001 62.081135,50.105049 51.418167,49.989380 
	C50.753876,49.982174 50.090080,49.929913 48.951084,49.819008 
	C47.049099,46.712105 45.190422,43.983479 42.609711,41.834980 
	C38.924908,38.767303 38.145924,35.121761 39.963291,30.729704 
	C40.826813,28.642828 41.490772,26.459412 41.724598,24.055050 
	C37.905003,27.253281 34.384811,30.656271 31.080534,34.268520 
	C28.570908,37.012051 30.660387,38.998478 32.330135,41.150951 
	C34.340042,43.741924 38.373444,45.158382 37.180294,49.793495 
z"/>
<path fill="#F9E107" opacity="1.000000" stroke="none" 
	d="
M36.934189,50.412621 
	C38.213604,46.770866 35.019630,45.841133 33.677090,44.003368 
	C32.411247,42.270596 30.771132,40.812412 29.307140,39.222870 
	C28.028574,37.834648 27.588615,36.432770 29.109825,34.871513 
	C33.594078,30.269203 38.047028,25.636389 43.206100,20.297445 
	C44.062077,24.448936 42.640854,27.035833 41.553101,29.306639 
	C39.023788,34.586872 39.795853,38.545341 44.351246,42.318962 
	C46.327763,43.956284 49.167736,45.608643 48.597103,49.401833 
	C43.676090,54.404705 38.876064,59.070000 33.262318,64.526176 
	C33.709557,58.881466 35.916992,54.986874 36.934189,50.412621 
z"/>
</svg>