<svg width="80" height="80" viewBox="0 0 80 80" fill="none" xmlns="http://www.w3.org/2000/svg">
<path fill-rule="evenodd" clip-rule="evenodd" d="M50.6527 4.03466C42.7635 8.86866 37.5 17.5697 37.5 27.5C37.5 42.6878 49.8122 55 65 55C68.5898 55 72.0189 54.3122 75.1628 53.0611C69.8597 67.3322 56.1173 77.5 40 77.5C19.2893 77.5 2.5 60.7107 2.5 40C2.5 19.2893 19.2893 2.5 40 2.5C43.7006 2.5 47.276 3.03602 50.6527 4.03466Z" fill="#FAE100"/>
<path fill-rule="evenodd" clip-rule="evenodd" d="M6.56779 53.5839C7.765 48.6576 12.2054 45 17.5 45C21.4005 45 24.8374 46.985 26.8556 50H30.625C35.8027 50 40 54.1973 40 59.375C40 64.5527 35.8027 68.75 30.625 68.75H24.383C24.3803 68.75 24.3777 68.75 24.375 68.75H17.5H10.625C6.13769 68.75 2.5 65.1123 2.5 60.625C2.5 57.6154 4.1363 54.988 6.56779 53.5839Z" fill="#949494"/>
</svg>
