<svg width="80" height="80" viewBox="0 0 80 80" fill="none" xmlns="http://www.w3.org/2000/svg">
<rect x="26.5352" y="66.0703" width="5" height="5" transform="rotate(-135 26.5352 66.0703)" fill="#949494"/>
<rect x="39.6055" y="66.0703" width="5" height="5" transform="rotate(-135 39.6055 66.0703)" fill="#949494"/>
<rect x="52.6758" y="66.0703" width="5" height="5" transform="rotate(-135 52.6758 66.0703)" fill="#949494"/>
<path fill-rule="evenodd" clip-rule="evenodd" d="M10.6356 28.4177C13.0301 18.5651 21.9108 11.25 32.5 11.25C40.3011 11.25 47.1748 15.2201 51.2111 21.25H58.75C69.1053 21.25 77.5 29.6447 77.5 40C77.5 50.3553 69.1053 58.75 58.75 58.75H36.25C36.2276 58.75 36.2051 58.75 36.1827 58.7499H32.5738C32.5492 58.75 32.5246 58.75 32.5 58.75C32.4754 58.75 32.4508 58.75 32.4263 58.7499H18.75C9.77536 58.7499 2.5 51.4745 2.5 42.4999C2.5 36.4807 5.77263 31.2259 10.6356 28.4177Z" fill="#949494"/>
<path fill-rule="evenodd" clip-rule="evenodd" d="M34.375 18.75H30.625V31.724L21.4485 22.5476L18.7969 25.1992L27.9727 34.375L15 34.375V38.125H27.974L18.7976 47.3015L21.4492 49.9531L30.625 40.7774V53.75H34.375V40.7773L43.5456 49.948L46.1973 47.2963L37.026 38.125H50V34.375L37.0273 34.375L46.198 25.2044L43.5463 22.5527L34.375 31.7241V18.75Z" fill="white"/>
</svg>
