<svg width="80" height="80" viewBox="0 0 80 80" fill="none" xmlns="http://www.w3.org/2000/svg">
<path fill-rule="evenodd" clip-rule="evenodd" d="M10.6356 27.1677C13.0301 17.3151 21.9108 10 32.5 10C40.3011 10 47.1748 13.9701 51.2111 20H58.75C69.1053 20 77.5 28.3947 77.5 38.75C77.5 49.1053 69.1053 57.5 58.75 57.5H36.25C36.2276 57.5 36.2051 57.5 36.1827 57.4999H32.5738C32.5492 57.5 32.5246 57.5 32.5 57.5C32.4754 57.5 32.4508 57.5 32.4263 57.4999H18.75C9.77536 57.4999 2.5 50.2245 2.5 41.2499C2.5 35.2307 5.77263 29.9759 10.6356 27.1677Z" fill="#949494"/>
<path fill-rule="evenodd" clip-rule="evenodd" d="M45 21.25L26.9822 39.482C26.4484 40.0159 26.1844 40.7624 26.2639 41.5131C26.3434 42.2639 26.758 42.9385 27.3919 43.3487L38.5455 55.4187L32.5 73.75L33.75 75L51.7678 56.7675C52.3016 56.2337 52.5656 55.4872 52.4861 54.7364C52.4065 53.9856 51.992 53.311 51.3581 52.9008L40.2045 40.8308L46.25 22.5L45 21.25Z" fill="#FAE100"/>
</svg>
