<svg width="80" height="80" viewBox="0 0 80 80" fill="none" xmlns="http://www.w3.org/2000/svg">
<path fill-rule="evenodd" clip-rule="evenodd" d="M10.6356 33.4177C13.0301 23.5651 21.9108 16.25 32.5 16.25C40.3011 16.25 47.1748 20.2201 51.2111 26.25H58.75C69.1053 26.25 77.5 34.6447 77.5 45C77.5 55.3553 69.1053 63.75 58.75 63.75H36.25C36.2276 63.75 36.2051 63.75 36.1827 63.7499H32.5738C32.5492 63.75 32.5246 63.75 32.5 63.75C32.4754 63.75 32.4508 63.75 32.4263 63.7499H18.75C9.77536 63.7499 2.5 56.4745 2.5 47.4999C2.5 41.4807 5.77263 36.2259 10.6356 33.4177Z" fill="#949494"/>
</svg>
