<svg width="80" height="80" viewBox="0 0 80 80" fill="none" xmlns="http://www.w3.org/2000/svg">
<path fill-rule="evenodd" clip-rule="evenodd" d="M57.6525 8.03154C53.0329 11.1818 50 16.4867 50 22.5C50 32.165 57.835 40 67.5 40C71.0309 40 74.3176 38.9543 77.0673 37.1556C74.8858 48.738 64.7162 57.5 52.5 57.5C38.6929 57.5 27.5 46.3071 27.5 32.5C27.5 18.6929 38.6929 7.5 52.5 7.5C54.2663 7.5 55.9898 7.68317 57.6525 8.03154Z" fill="#FAE100"/>
<path fill-rule="evenodd" clip-rule="evenodd" d="M9.25486 46.9098C11.213 38.6472 18.6386 32.5 27.5 32.5C34.1789 32.5 40.0422 35.9921 43.3636 41.25H49.375C58.0044 41.25 65 48.2455 65 56.875C65 65.5044 58.0044 72.5 49.375 72.5H38.7603C38.7569 72.5 38.7534 72.5 38.75 72.5L30.625 72.5L16.25 72.5C8.65607 72.5 2.5 66.3439 2.5 58.75C2.5 53.7103 5.21132 49.3039 9.25486 46.9098Z" fill="#949494"/>
</svg>
